# xmcd
#
# Track frame offsets:
# 150
# 19214
# 37313
# 50825
# 65986
# 83663
# 102488
# 118735
# 135071
# 154663
# 171157
# 188006
# 198975
# 216210
# 231576
# 252547
# 265911
# 279396
# 295263
# 318511
#
# Disc length: 4424 seconds
#
# Revision: 2
# Processed by: cddbd v1.5.2PL0 Copyright (c) Steve Scherf et al.
# Submitted via: Axialis_AX_CDPlayer 2.6
#
DISCID=37114614
DTITLE=Rodney Crowell - But What Will The Neighbors Think - Rodney Crowell
DYEAR=1980
DGENRE=Country/Rock
TTITLE0=Here Come The 80's
TTITLE1=Ain't No Money
TTITLE2=Oh, What A Feeling
TTITLE3=It's Only Rock 'N' Roll
TTITLE4=On A Real Good Night
TTITLE5=Ashes By Now
TTITLE6=Heartbroke
TTITLE7=Queen Of Hearts
TTITLE8=Blues In The Daytime
TTITLE9=The One About England
TTITLE10=Stars On The Water
TTITLE11=Just Wanta Dance
TTITLE12=She Ain't Going Nowhere
TTITLE13=Don't Need No Other Now
TTITLE14=Shame On The Moon
TTITLE15=Only Two Hearts
TTITLE16=Victim Or A Fool
TTITLE17=All You've Got To Do
TTITLE18='Til I Gain Control Again
TTITLE19=Old Pipeliner
EXTD=
EXTT0=
EXTT1=
EXTT2=
EXTT3=
EXTT4=
EXTT5=
EXTT6=
EXTT7=
EXTT8=
EXTT9=
EXTT10=
EXTT11=
EXTT12=
EXTT13=
EXTT14=
EXTT15=
EXTT16=
EXTT17=
EXTT18=
EXTT19=
PLAYORDER=
